<?xml version="1.0" encoding="UTF-8"?>
<!-- Flow Icon Sprite: ~64 icons. Use with <svg><use href="#icon-id"/></svg> -->
<svg xmlns="http://www.w3.org/2000/svg" width="0" height="0" style="position:absolute">
  <defs>
    <symbol id="health-heart" viewBox="0 0 24 24">
      <path stroke="currentColor" stroke-width="2.4" stroke-linecap="round" stroke-linejoin="round" fill="none" d="M12 20s-5.6-4-8.2-7C1.8 10 .9 6.5 4 5.3c1.9-.8 4 .2 5.2 1.7C10.4 5.5 12.5 4.5 14.4 5.3c3.1 1.2 2.2 4.7.2 7.7C17.6 16 12 20 12 20z"/>
      <polyline stroke="currentColor" stroke-width="2.4" stroke-linecap="round" stroke-linejoin="round" fill="none" points="4.5,12 8,12 10,9 13,15 15,12 18.5,12"/>
    </symbol>
      <symbol id="health-stethoscope" viewBox="0 0 24 24">
        <path stroke="currentColor" stroke-width="2.4" stroke-linecap="round" stroke-linejoin="round" fill="none" d="M6 3v6a4 4 0 0 0 8 0V3"/>
        <circle stroke="currentColor" stroke-width="2.4" stroke-linecap="round" stroke-linejoin="round" fill="none" cx="18" cy="15" r="3"/>
        <path stroke="currentColor" stroke-width="2.4" stroke-linecap="round" stroke-linejoin="round" fill="none" d="M14 9v6a5 5 0 0 1-5 5H7"/>
      </symbol>
      <symbol id="health-droplet" viewBox="0 0 24 24">
        <path stroke="currentColor" stroke-width="2.4" stroke-linecap="round" stroke-linejoin="round" fill="none" d="M12 3c3 4 6 7 6 10a6 6 0 1 1-12 0c0-3 3-6 6-10z"/>
      </symbol>
      <symbol id="health-pill" viewBox="0 0 24 24">
        <rect stroke="currentColor" stroke-width="2.4" stroke-linecap="round" stroke-linejoin="round" fill="none" x="3" y="8" width="18" height="8" rx="4"/>
        <path stroke="currentColor" stroke-width="2.4" stroke-linecap="round" stroke-linejoin="round" fill="none" d="M9 8v8"/>
      </symbol>
      <symbol id="health-apple" viewBox="0 0 24 24">
        <path stroke="currentColor" stroke-width="2.4" stroke-linecap="round" stroke-linejoin="round" fill="none" d="M14 7c0-2 2-3 3-3-1 2-2 3-3 3z"/>
        <path stroke="currentColor" stroke-width="2.4" stroke-linecap="round" stroke-linejoin="round" fill="none" d="M12 7c-3 0-7 2-7 6a6 6 0 0 0 12 0c0-4-4-6-5-6z"/>
      </symbol>
      <symbol id="health-bandage" viewBox="0 0 24 24">
        <rect stroke="currentColor" stroke-width="2.4" stroke-linecap="round" stroke-linejoin="round" fill="none" x="4" y="8" width="16" height="8" rx="3"/>
        <circle stroke="currentColor" stroke-width="2.4" stroke-linecap="round" stroke-linejoin="round" fill="none" cx="10" cy="12" r="1"/><circle stroke="currentColor" stroke-width="2.4" stroke-linecap="round" stroke-linejoin="round" fill="none" cx="14" cy="12" r="1"/></symbol><symbol id="health-water-glass" viewBox="0 0 24 24"><path stroke="currentColor" stroke-width="2.4" stroke-linecap="round" stroke-linejoin="round" fill="none" d="M5 4h14l-1.2 14a3 3 0 0 1-3 2.7H9.2a3 3 0 0 1-3-2.7L5 4z"/><path stroke="currentColor" stroke-width="2.4" stroke-linecap="round" stroke-linejoin="round" fill="none" d="M5 8h14"/></symbol><symbol id="health-lotus" viewBox="0 0 24 24"><path stroke="currentColor" stroke-width="2.4" stroke-linecap="round" stroke-linejoin="round" fill="none" d="M12 18c3-1 5-3 6-5-2 0-4 .5-6 2-2-1.5-4-2-6-2 1 2 3 4 6 5z"/><path stroke="currentColor" stroke-width="2.4" stroke-linecap="round" stroke-linejoin="round" fill="none" d="M12 15c0-3 1.5-6 3.5-7.5C14 7.5 12.8 8.3 12 9.8 11.2 8.3 10 7.5 8.5 7.5 10.5 9 12 12 12 15z"/></symbol><symbol id="health-scale" viewBox="0 0 24 24"><rect stroke="currentColor" stroke-width="2.4" stroke-linecap="round" stroke-linejoin="round" fill="none" x="4" y="4" width="16" height="16" rx="3"/><path stroke="currentColor" stroke-width="2.4" stroke-linecap="round" stroke-linejoin="round" fill="none" d="M12 8v5"/><circle stroke="currentColor" stroke-width="2.4" stroke-linecap="round" stroke-linejoin="round" fill="none" cx="12" cy="13" r="1"/></symbol><symbol id="health-medical-cross" viewBox="0 0 24 24"><rect stroke="currentColor" stroke-width="2.4" stroke-linecap="round" stroke-linejoin="round" fill="none" x="3" y="3" width="18" height="18" rx="3"/><path stroke="currentColor" stroke-width="2.4" stroke-linecap="round" stroke-linejoin="round" fill="none" d="M12 7v10M7 12h10"/></symbol><symbol id="fitness-dumbbell" viewBox="0 0 24 24"><path stroke="currentColor" stroke-width="2.4" stroke-linecap="round" stroke-linejoin="round" fill="none" d="M3 10h3v4H3zM18 10h3v4h-3zM7 11h10v2H7z"/></symbol><symbol id="fitness-barbell" viewBox="0 0 24 24"><path stroke="currentColor" stroke-width="2.4" stroke-linecap="round" stroke-linejoin="round" fill="none" d="M2 10h2v4H2zM20 10h2v4h-2zM6 11h12v2H6zM4 9v6M20 9v6"/></symbol><symbol id="fitness-kettlebell" viewBox="0 0 24 24"><path stroke="currentColor" stroke-width="2.4" stroke-linecap="round" stroke-linejoin="round" fill="none" d="M8 9a4 4 0 0 1 8 0"/><circle stroke="currentColor" stroke-width="2.4" stroke-linecap="round" stroke-linejoin="round" fill="none" cx="12" cy="15" r="6"/></symbol><symbol id="fitness-run" viewBox="0 0 24 24"><circle stroke="currentColor" stroke-width="2.4" stroke-linecap="round" stroke-linejoin="round" fill="none" cx="15" cy="5" r="2"/><path stroke="currentColor" stroke-width="2.4" stroke-linecap="round" stroke-linejoin="round" fill="none" d="M9 21l3-6 3-2 2-3"/><path stroke="currentColor" stroke-width="2.4" stroke-linecap="round" stroke-linejoin="round" fill="none" d="M6 12l5 1"/><path stroke="currentColor" stroke-width="2.4" stroke-linecap="round" stroke-linejoin="round" fill="none" d="M12 7l-1 4 3 1"/></symbol><symbol id="fitness-yoga" viewBox="0 0 24 24"><circle stroke="currentColor" stroke-width="2.4" stroke-linecap="round" stroke-linejoin="round" fill="none" cx="12" cy="6" r="2"/><path stroke="currentColor" stroke-width="2.4" stroke-linecap="round" stroke-linejoin="round" fill="none" d="M6 18c3-2 9-2 12 0"/><path stroke="currentColor" stroke-width="2.4" stroke-linecap="round" stroke-linejoin="round" fill="none" d="M12 8v5"/><path stroke="currentColor" stroke-width="2.4" stroke-linecap="round" stroke-linejoin="round" fill="none" d="M9.5 14L8 16M14.5 14L16 16"/></symbol><symbol id="fitness-stopwatch" viewBox="0 0 24 24"><circle stroke="currentColor" stroke-width="2.4" stroke-linecap="round" stroke-linejoin="round" fill="none" cx="12" cy="13" r="7"/><path stroke="currentColor" stroke-width="2.4" stroke-linecap="round" stroke-linejoin="round" fill="none" d="M12 13l3-3"/><path stroke="currentColor" stroke-width="2.4" stroke-linecap="round" stroke-linejoin="round" fill="none" d="M9 3h6"/><path stroke="currentColor" stroke-width="2.4" stroke-linecap="round" stroke-linejoin="round" fill="none" d="M15 3l1 3"/></symbol><symbol id="fitness-shoe" viewBox="0 0 24 24"><path stroke="currentColor" stroke-width="2.4" stroke-linecap="round" stroke-linejoin="round" fill="none" d="M4 13l6 2 3-2 3 3H5a3 3 0 0 1-1-3z"/><path stroke="currentColor" stroke-width="2.4" stroke-linecap="round" stroke-linejoin="round" fill="none" d="M10 15l-2 4h10a2 2 0 0 0 2-2v-1"/></symbol><symbol id="fitness-stretch" viewBox="0 0 24 24"><circle stroke="currentColor" stroke-width="2.4" stroke-linecap="round" stroke-linejoin="round" fill="none" cx="7" cy="6" r="2"/><path stroke="currentColor" stroke-width="2.4" stroke-linecap="round" stroke-linejoin="round" fill="none" d="M6 20l3-5 6-3"/><path stroke="currentColor" stroke-width="2.4" stroke-linecap="round" stroke-linejoin="round" fill="none" d="M10 9l2 2m-8 3h4"/></symbol><symbol id="fitness-flame" viewBox="0 0 24 24"><path stroke="currentColor" stroke-width="2.4" stroke-linecap="round" stroke-linejoin="round" fill="none" d="M12 21c-3 0-5-2.2-5-5 0-3 3-5 4-8 2 1 5 3 5 7 0 2.8-2 6-4 6z"/></symbol><symbol id="fitness-whistle" viewBox="0 0 24 24"><circle stroke="currentColor" stroke-width="2.4" stroke-linecap="round" stroke-linejoin="round" fill="none" cx="8" cy="13" r="3"/><path stroke="currentColor" stroke-width="2.4" stroke-linecap="round" stroke-linejoin="round" fill="none" d="M11 13h7a2 2 0 0 0 0-4h-5"/><path stroke="currentColor" stroke-width="2.4" stroke-linecap="round" stroke-linejoin="round" fill="none" d="M18 9l2-2"/></symbol><symbol id="work-laptop" viewBox="0 0 24 24"><rect stroke="currentColor" stroke-width="2.4" stroke-linecap="round" stroke-linejoin="round" fill="none" x="5" y="6" width="14" height="9" rx="1"/><path stroke="currentColor" stroke-width="2.4" stroke-linecap="round" stroke-linejoin="round" fill="none" d="M3 18h18"/></symbol><symbol id="work-briefcase" viewBox="0 0 24 24"><rect stroke="currentColor" stroke-width="2.4" stroke-linecap="round" stroke-linejoin="round" fill="none" x="3" y="7" width="18" height="12" rx="2"/><path stroke="currentColor" stroke-width="2.4" stroke-linecap="round" stroke-linejoin="round" fill="none" d="M9 7V5h6v2"/><path stroke="currentColor" stroke-width="2.4" stroke-linecap="round" stroke-linejoin="round" fill="none" d="M3 12h18"/></symbol><symbol id="work-calendar" viewBox="0 0 24 24"><rect stroke="currentColor" stroke-width="2.4" stroke-linecap="round" stroke-linejoin="round" fill="none" x="3" y="4" width="18" height="17" rx="2"/><path stroke="currentColor" stroke-width="2.4" stroke-linecap="round" stroke-linejoin="round" fill="none" d="M3 9h18"/><path stroke="currentColor" stroke-width="2.4" stroke-linecap="round" stroke-linejoin="round" fill="none" d="M8 3v4M16 3v4"/></symbol><symbol id="work-clock" viewBox="0 0 24 24"><circle stroke="currentColor" stroke-width="2.4" stroke-linecap="round" stroke-linejoin="round" fill="none" cx="12" cy="12" r="8"/><path stroke="currentColor" stroke-width="2.4" stroke-linecap="round" stroke-linejoin="round" fill="none" d="M12 8v5l3 2"/></symbol><symbol id="work-envelope" viewBox="0 0 24 24"><rect stroke="currentColor" stroke-width="2.4" stroke-linecap="round" stroke-linejoin="round" fill="none" x="3" y="6" width="18" height="12" rx="2"/><path stroke="currentColor" stroke-width="2.4" stroke-linecap="round" stroke-linejoin="round" fill="none" d="M3 8l9 6 9-6"/></symbol><symbol id="work-clipboard" viewBox="0 0 24 24"><rect stroke="currentColor" stroke-width="2.4" stroke-linecap="round" stroke-linejoin="round" fill="none" x="6" y="4" width="12" height="16" rx="2"/><rect stroke="currentColor" stroke-width="2.4" stroke-linecap="round" stroke-linejoin="round" fill="none" x="9" y="2" width="6" height="4" rx="1"/><path stroke="currentColor" stroke-width="2.4" stroke-linecap="round" stroke-linejoin="round" fill="none" d="M9 10h6M9 14h6"/></symbol><symbol id="work-checklist" viewBox="0 0 24 24"><rect stroke="currentColor" stroke-width="2.4" stroke-linecap="round" stroke-linejoin="round" fill="none" x="4" y="4" width="16" height="16" rx="2"/><path stroke="currentColor" stroke-width="2.4" stroke-linecap="round" stroke-linejoin="round" fill="none" d="M8 9l2 2 4-4M8 15l2 2 4-4"/></symbol><symbol id="work-target" viewBox="0 0 24 24"><circle stroke="currentColor" stroke-width="2.4" stroke-linecap="round" stroke-linejoin="round" fill="none" cx="12" cy="12" r="8"/><circle stroke="currentColor" stroke-width="2.4" stroke-linecap="round" stroke-linejoin="round" fill="none" cx="12" cy="12" r="4"/><circle stroke="currentColor" stroke-width="2.4" stroke-linecap="round" stroke-linejoin="round" fill="none" cx="12" cy="12" r="1"/></symbol><symbol id="learn-book" viewBox="0 0 24 24"><path stroke="currentColor" stroke-width="2.4" stroke-linecap="round" stroke-linejoin="round" fill="none" d="M4 5h8a3 3 0 0 1 3 3v11H7a3 3 0 0 0-3 3V5z"/><path stroke="currentColor" stroke-width="2.4" stroke-linecap="round" stroke-linejoin="round" fill="none" d="M12 5h8v17a3 3 0 0 0-3-3h-6V8a3 3 0 0 1 3-3z"/></symbol><symbol id="learn-cap" viewBox="0 0 24 24"><path stroke="currentColor" stroke-width="2.4" stroke-linecap="round" stroke-linejoin="round" fill="none" d="M3 10l9-4 9 4-9 4-9-4z"/><path stroke="currentColor" stroke-width="2.4" stroke-linecap="round" stroke-linejoin="round" fill="none" d="M7 12v4a5 5 0 0 0 5 5"/><path stroke="currentColor" stroke-width="2.4" stroke-linecap="round" stroke-linejoin="round" fill="none" d="M21 10v4"/></symbol><symbol id="learn-lightbulb" viewBox="0 0 24 24"><path stroke="currentColor" stroke-width="2.4" stroke-linecap="round" stroke-linejoin="round" fill="none" d="M8 14a6 6 0 1 1 8 0c-1 1-1 2-1 3H9c0-1 0-2-1-3z"/><path stroke="currentColor" stroke-width="2.4" stroke-linecap="round" stroke-linejoin="round" fill="none" d="M10 20h4M10 22h4"/></symbol><symbol id="learn-pencil" viewBox="0 0 24 24"><path stroke="currentColor" stroke-width="2.4" stroke-linecap="round" stroke-linejoin="round" fill="none" d="M4 20l4-1 9-9a2 2 0 0 0-3-3l-9 9-1 4z"/><path stroke="currentColor" stroke-width="2.4" stroke-linecap="round" stroke-linejoin="round" fill="none" d="M13 7l4 4"/></symbol><symbol id="learn-certificate" viewBox="0 0 24 24"><circle stroke="currentColor" stroke-width="2.4" stroke-linecap="round" stroke-linejoin="round" fill="none" cx="9" cy="10" r="4"/><path stroke="currentColor" stroke-width="2.4" stroke-linecap="round" stroke-linejoin="round" fill="none" d="M11 12l4 4 2-2-4-4"/><path stroke="currentColor" stroke-width="2.4" stroke-linecap="round" stroke-linejoin="round" fill="none" d="M7 14l-2 6 3-1 2 2 2-6"/></symbol><symbol id="learn-open-book" viewBox="0 0 24 24"><path stroke="currentColor" stroke-width="2.4" stroke-linecap="round" stroke-linejoin="round" fill="none" d="M3 6h8a4 4 0 0 1 4 4v10a4 4 0 0 0-4-4H3V6z"/><path stroke="currentColor" stroke-width="2.4" stroke-linecap="round" stroke-linejoin="round" fill="none" d="M21 6h-8a4 4 0 0 0-4 4v10a4 4 0 0 1 4-4h8V6z"/></symbol><symbol id="social-users" viewBox="0 0 24 24"><circle stroke="currentColor" stroke-width="2.4" stroke-linecap="round" stroke-linejoin="round" fill="none" cx="8" cy="8" r="3"/><circle stroke="currentColor" stroke-width="2.4" stroke-linecap="round" stroke-linejoin="round" fill="none" cx="16" cy="9" r="3"/><path stroke="currentColor" stroke-width="2.4" stroke-linecap="round" stroke-linejoin="round" fill="none" d="M2 19a6 6 0 0 1 12 0"/><path stroke="currentColor" stroke-width="2.4" stroke-linecap="round" stroke-linejoin="round" fill="none" d="M10 19a6 6 0 0 1 12 0"/></symbol><symbol id="social-user" viewBox="0 0 24 24"><circle stroke="currentColor" stroke-width="2.4" stroke-linecap="round" stroke-linejoin="round" fill="none" cx="12" cy="7" r="4"/><path stroke="currentColor" stroke-width="2.4" stroke-linecap="round" stroke-linejoin="round" fill="none" d="M4 21a8 8 0 0 1 16 0"/></symbol><symbol id="social-chat" viewBox="0 0 24 24"><rect stroke="currentColor" stroke-width="2.4" stroke-linecap="round" stroke-linejoin="round" fill="none" x="3" y="5" width="18" height="12" rx="2"/><path stroke="currentColor" stroke-width="2.4" stroke-linecap="round" stroke-linejoin="round" fill="none" d="M8 17l-2 4"/><path stroke="currentColor" stroke-width="2.4" stroke-linecap="round" stroke-linejoin="round" fill="none" d="M7 10h10M7 13h7"/></symbol><symbol id="social-thumbs-up" viewBox="0 0 24 24"><path stroke="currentColor" stroke-width="2.4" stroke-linecap="round" stroke-linejoin="round" fill="none" d="M2 14h4v8H2z"/><path stroke="currentColor" stroke-width="2.4" stroke-linecap="round" stroke-linejoin="round" fill="none" d="M6 14h6l2-7 3 1a2 2 0 0 1 2 2v6a3 3 0 0 1-3 3H6"/></symbol><symbol id="social-bell" viewBox="0 0 24 24"><path stroke="currentColor" stroke-width="2.4" stroke-linecap="round" stroke-linejoin="round" fill="none" d="M6 10a6 6 0 1 1 12 0v5l2 2H4l2-2v-5"/><path stroke="currentColor" stroke-width="2.4" stroke-linecap="round" stroke-linejoin="round" fill="none" d="M10 19a2 2 0 0 0 4 0"/></symbol><symbol id="social-presentation" viewBox="0 0 24 24"><rect stroke="currentColor" stroke-width="2.4" stroke-linecap="round" stroke-linejoin="round" fill="none" x="3" y="3" width="18" height="12" rx="2"/><path stroke="currentColor" stroke-width="2.4" stroke-linecap="round" stroke-linejoin="round" fill="none" d="M7 21l5-6 5 6"/><circle stroke="currentColor" stroke-width="2.4" stroke-linecap="round" stroke-linejoin="round" fill="none" cx="9" cy="9" r="1"/><path stroke="currentColor" stroke-width="2.4" stroke-linecap="round" stroke-linejoin="round" fill="none" d="M11 9h4"/></symbol><symbol id="finance-coin-dollar" viewBox="0 0 24 24"><circle stroke="currentColor" stroke-width="2.4" stroke-linecap="round" stroke-linejoin="round" fill="none" cx="12" cy="12" r="8"/><path stroke="currentColor" stroke-width="2.4" stroke-linecap="round" stroke-linejoin="round" fill="none" d="M12 7v10"/><path stroke="currentColor" stroke-width="2.4" stroke-linecap="round" stroke-linejoin="round" fill="none" d="M15 9c-1-1-4-1-4 1s3 2 4 3-1 3-4 3"/></symbol><symbol id="finance-chart-up" viewBox="0 0 24 24"><path stroke="currentColor" stroke-width="2.4" stroke-linecap="round" stroke-linejoin="round" fill="none" d="M3 3v18h18"/><path stroke="currentColor" stroke-width="2.4" stroke-linecap="round" stroke-linejoin="round" fill="none" d="M6 16l5-5 3 3 5-6"/></symbol><symbol id="finance-wallet" viewBox="0 0 24 24"><rect stroke="currentColor" stroke-width="2.4" stroke-linecap="round" stroke-linejoin="round" fill="none" x="3" y="7" width="18" height="12" rx="3"/><path stroke="currentColor" stroke-width="2.4" stroke-linecap="round" stroke-linejoin="round" fill="none" d="M21 12h-5a2 2 0 0 0 0 4h5v-4z"/></symbol><symbol id="finance-piggy-bank" viewBox="0 0 24 24"><path stroke="currentColor" stroke-width="2.4" stroke-linecap="round" stroke-linejoin="round" fill="none" d="M3 13a6 5 0 0 1 10-3l3 1 3 2-2 2v2h-2"/><circle stroke="currentColor" stroke-width="2.4" stroke-linecap="round" stroke-linejoin="round" fill="none" cx="8" cy="12" r="1"/><path stroke="currentColor" stroke-width="2.4" stroke-linecap="round" stroke-linejoin="round" fill="none" d="M5 18h6"/></symbol><symbol id="finance-credit-card" viewBox="0 0 24 24"><rect stroke="currentColor" stroke-width="2.4" stroke-linecap="round" stroke-linejoin="round" fill="none" x="3" y="6" width="18" height="12" rx="2"/><path stroke="currentColor" stroke-width="2.4" stroke-linecap="round" stroke-linejoin="round" fill="none" d="M3 10h18"/><path stroke="currentColor" stroke-width="2.4" stroke-linecap="round" stroke-linejoin="round" fill="none" d="M6 14h4"/></symbol><symbol id="finance-receipt" viewBox="0 0 24 24"><path stroke="currentColor" stroke-width="2.4" stroke-linecap="round" stroke-linejoin="round" fill="none" d="M6 3h9l3 3v14l-3-2-3 2-3-2-3 2V3z"/><path stroke="currentColor" stroke-width="2.4" stroke-linecap="round" stroke-linejoin="round" fill="none" d="M8 9h8M8 13h6"/></symbol><symbol id="finance-money-bag" viewBox="0 0 24 24"><path stroke="currentColor" stroke-width="2.4" stroke-linecap="round" stroke-linejoin="round" fill="none" d="M9 7l6-2-2 3 3 1-3 1"/><path stroke="currentColor" stroke-width="2.4" stroke-linecap="round" stroke-linejoin="round" fill="none" d="M12 10c5 0 7 6 3 9a7 7 0 0 1-6 0c-4-3-2-9 3-9z"/></symbol><symbol id="finance-safe" viewBox="0 0 24 24"><rect stroke="currentColor" stroke-width="2.4" stroke-linecap="round" stroke-linejoin="round" fill="none" x="3" y="6" width="18" height="12" rx="2"/><circle stroke="currentColor" stroke-width="2.4" stroke-linecap="round" stroke-linejoin="round" fill="none" cx="12" cy="12" r="3"/><path stroke="currentColor" stroke-width="2.4" stroke-linecap="round" stroke-linejoin="round" fill="none" d="M21 9v6M3 9v6"/></symbol><symbol id="home-house" viewBox="0 0 24 24"><path stroke="currentColor" stroke-width="2.4" stroke-linecap="round" stroke-linejoin="round" fill="none" d="M3 11l9-7 9 7"/><path stroke="currentColor" stroke-width="2.4" stroke-linecap="round" stroke-linejoin="round" fill="none" d="M5 10v10h14V10"/><rect stroke="currentColor" stroke-width="2.4" stroke-linecap="round" stroke-linejoin="round" fill="none" x="10" y="14" width="4" height="6"/></symbol><symbol id="home-house-alt" viewBox="0 0 24 24"><path stroke="currentColor" stroke-width="2.4" stroke-linecap="round" stroke-linejoin="round" fill="none" d="M4 12l8-6 8 6"/><rect stroke="currentColor" stroke-width="2.4" stroke-linecap="round" stroke-linejoin="round" fill="none" x="6" y="12" width="12" height="8" rx="2"/></symbol><symbol id="home-bathtub" viewBox="0 0 24 24"><rect stroke="currentColor" stroke-width="2.4" stroke-linecap="round" stroke-linejoin="round" fill="none" x="3" y="12" width="18" height="6" rx="2"/><path stroke="currentColor" stroke-width="2.4" stroke-linecap="round" stroke-linejoin="round" fill="none" d="M5 9a2 2 0 0 1 4 0v3"/><path stroke="currentColor" stroke-width="2.4" stroke-linecap="round" stroke-linejoin="round" fill="none" d="M5 20h2M17 20h2"/></symbol><symbol id="home-broom" viewBox="0 0 24 24"><path stroke="currentColor" stroke-width="2.4" stroke-linecap="round" stroke-linejoin="round" fill="none" d="M3 18l6-6 3 3-6 6z"/><path stroke="currentColor" stroke-width="2.4" stroke-linecap="round" stroke-linejoin="round" fill="none" d="M12 9l3 3"/><path stroke="currentColor" stroke-width="2.4" stroke-linecap="round" stroke-linejoin="round" fill="none" d="M14 7l3 3"/></symbol><symbol id="home-recycle" viewBox="0 0 24 24"><path stroke="currentColor" stroke-width="2.4" stroke-linecap="round" stroke-linejoin="round" fill="none" d="M10 4l2-2 2 2M12 2v6"/><path stroke="currentColor" stroke-width="2.4" stroke-linecap="round" stroke-linejoin="round" fill="none" d="M4 14l-2 2 2 2M2 16h6"/><path stroke="currentColor" stroke-width="2.4" stroke-linecap="round" stroke-linejoin="round" fill="none" d="M14 20l2 2 2-2M16 22v-6"/></symbol><symbol id="home-lock" viewBox="0 0 24 24"><rect stroke="currentColor" stroke-width="2.4" stroke-linecap="round" stroke-linejoin="round" fill="none" x="5" y="11" width="14" height="10" rx="2"/><path stroke="currentColor" stroke-width="2.4" stroke-linecap="round" stroke-linejoin="round" fill="none" d="M8 11V8a4 4 0 0 1 8 0v3"/><circle stroke="currentColor" stroke-width="2.4" stroke-linecap="round" stroke-linejoin="round" fill="none" cx="12" cy="16" r="1"/></symbol><symbol id="home-unlock" viewBox="0 0 24 24"><rect stroke="currentColor" stroke-width="2.4" stroke-linecap="round" stroke-linejoin="round" fill="none" x="5" y="11" width="14" height="10" rx="2"/><path stroke="currentColor" stroke-width="2.4" stroke-linecap="round" stroke-linejoin="round" fill="none" d="M8 11V9a4 4 0 0 1 8 0"/><circle stroke="currentColor" stroke-width="2.4" stroke-linecap="round" stroke-linejoin="round" fill="none" cx="12" cy="16" r="1"/></symbol><symbol id="personal-head" viewBox="0 0 24 24"><path stroke="currentColor" stroke-width="2.4" stroke-linecap="round" stroke-linejoin="round" fill="none" d="M12 3a5 5 0 0 1 5 5v2a3 3 0 0 0 2 3v3H8l-2-3h2a3 3 0 0 0 3-3V8a5 5 0 0 1 1-5z"/></symbol><symbol id="personal-gear" viewBox="0 0 24 24"><circle stroke="currentColor" stroke-width="2.4" stroke-linecap="round" stroke-linejoin="round" fill="none" cx="12" cy="12" r="3"/><path stroke="currentColor" stroke-width="2.4" stroke-linecap="round" stroke-linejoin="round" fill="none" d="M12 3v2M12 19v2M4.9 4.9l1.4 1.4M17.7 17.7l1.4 1.4M3 12h2M19 12h2M4.9 19.1l1.4-1.4M17.7 6.3l1.4-1.4"/></symbol><symbol id="personal-id-card" viewBox="0 0 24 24"><rect stroke="currentColor" stroke-width="2.4" stroke-linecap="round" stroke-linejoin="round" fill="none" x="3" y="6" width="18" height="12" rx="2"/><circle stroke="currentColor" stroke-width="2.4" stroke-linecap="round" stroke-linejoin="round" fill="none" cx="8" cy="12" r="2"/><path stroke="currentColor" stroke-width="2.4" stroke-linecap="round" stroke-linejoin="round" fill="none" d="M6 16h4"/><path stroke="currentColor" stroke-width="2.4" stroke-linecap="round" stroke-linejoin="round" fill="none" d="M13 10h5M13 13h5M13 16h3"/></symbol><symbol id="personal-shirt" viewBox="0 0 24 24"><path stroke="currentColor" stroke-width="2.4" stroke-linecap="round" stroke-linejoin="round" fill="none" d="M8 4l4 2 4-2 3 4-3 2v10H8V10L5 8l3-4z"/></symbol><symbol id="personal-leaf" viewBox="0 0 24 24"><path stroke="currentColor" stroke-width="2.4" stroke-linecap="round" stroke-linejoin="round" fill="none" d="M4 14c8-8 12-6 16-10-2 6-2 10-10 16-3 3-7 2-7 2s-1-4 1-8z"/></symbol><symbol id="personal-check-circle" viewBox="0 0 24 24"><circle stroke="currentColor" stroke-width="2.4" stroke-linecap="round" stroke-linejoin="round" fill="none" cx="12" cy="12" r="9"/><path stroke="currentColor" stroke-width="2.4" stroke-linecap="round" stroke-linejoin="round" fill="none" d="M8 12l3 3 5-6"/></symbol><symbol id="personal-bullseye" viewBox="0 0 24 24"><circle stroke="currentColor" stroke-width="2.4" stroke-linecap="round" stroke-linejoin="round" fill="none" cx="12" cy="12" r="9"/><circle stroke="currentColor" stroke-width="2.4" stroke-linecap="round" stroke-linejoin="round" fill="none" cx="12" cy="12" r="5"/><circle stroke="currentColor" stroke-width="2.4" stroke-linecap="round" stroke-linejoin="round" fill="none" cx="12" cy="12" r="1"/></symbol><symbol id="personal-drop" viewBox="0 0 24 24"><path stroke="currentColor" stroke-width="2.4" stroke-linecap="round" stroke-linejoin="round" fill="none" d="M12 4c4 5 6 7 6 10a6 6 0 1 1-12 0c0-3 2-5 6-10z"/></symbol><symbol id="personal-moon" viewBox="0 0 24 24"><path stroke="currentColor" stroke-width="2.4" stroke-linecap="round" stroke-linejoin="round" fill="none" d="M14 3a8 8 0 1 0 7 11 7 7 0 0 1-7-11z"/></symbol>
  </defs>
</svg>
